<svg width="1024" height="1024" viewBox="0 0 1024 1024" xmlns="http://www.w3.org/2000/svg" preserveAspectRatio="xMidYMid meet"><svg x="670" y="615" width="71" height="101" xmlns="http://www.w3.org/2000/svg" preserveAspectRatio="none"><svg version="1.1" xmlns="http://www.w3.org/2000/svg" style="display: block;" width="71" height="101" viewBox="307.74 435.88 575.64 818.87" preserveAspectRatio="none"><g id="svg-group-a40fa596-ddfa-4d6d-8ccf-b96695e6a0f5">
<path transform="translate(0,0)" fill="rgb(254,254,254)" d="M 356.285 448.355 C 376.302 445.759 411.246 448.328 430.776 453.987 C 436.731 461.124 442.785 472.718 446.448 481.271 C 476.095 550.499 503.903 621.365 532.342 690.964 C 551.678 737.049 570.075 783.523 587.521 830.356 C 591.614 841.368 602.011 865.819 604.439 874.86 C 614.437 856.893 618.162 842.673 625.58 824.05 C 659.897 737.9 691.123 649.789 723.862 563.064 L 744.756 507.51 C 753.041 484.856 760.139 449.906 789.224 450.019 C 821.535 450.144 865.083 438.865 883.378 472.636 C 879.593 493.187 866.004 517.956 859.046 537.969 C 843.276 583.328 824.417 627.831 806.584 672.475 L 762.783 783.617 C 751.122 812.58 738.507 841.516 727.699 870.754 L 660.26 1044.33 C 645.092 1084.15 631.115 1122.16 613.123 1160.27 C 580.807 1228.73 522.94 1251.77 450.187 1247.66 C 439.07 1247.03 424.752 1248.76 413.54 1246.75 C 373.323 1239.57 383.12 1185.85 384.654 1156.49 C 385.075 1148.77 389.705 1144.7 395.039 1141.22 C 424.522 1139.46 464.837 1146.02 489.728 1130.37 C 513.977 1115.11 525.836 1086.24 535.568 1060.74 C 541.044 1046.38 545.387 1035.85 548.92 1020.71 C 511.876 947.338 482.518 867.569 449.817 791.692 L 365.755 592.706 C 357.413 573.643 348.868 554.669 340.122 535.788 C 331.813 518.068 307.739 480.712 325.375 464.777 C 334.945 456.132 342.997 448.856 356.285 448.355 z"/>
</g></svg></svg><svg x="284" y="358" width="386" height="329" xmlns="http://www.w3.org/2000/svg" preserveAspectRatio="none"><svg version="1.1" xmlns="http://www.w3.org/2000/svg" style="display: block;" width="386" height="329" viewBox="0.22 0.00 2049.04 1746.46" preserveAspectRatio="none"><g id="svg-group-28b90848-fa6a-4a40-bb72-ca1dce6ce65e">
<path transform="translate(0,0)" fill="rgba(254, 254, 254, 1)" d="M 156.345 1366.28 C 165.507 1365.14 175.914 1365.96 185.227 1365.42 C 194.586 1364.87 214.714 1369.07 214.951 1381.06 C 215.22 1394.61 215.321 1409.56 215.159 1423.24 C 214.827 1451.16 175.831 1441.68 158.643 1446.85 C 143.273 1450.84 125.778 1458.8 114.268 1470.13 C 78.5444 1505.29 81.9443 1552.25 81.7298 1597.55 C 81.5299 1639.76 83.2847 1682.65 81.8343 1724.34 C 69.7301 1743.78 59.0535 1739 38.4888 1739.33 C 32.4661 1739.43 26.2816 1739.11 20.2451 1738.99 C 12.2335 1736.64 8.50856 1732.88 2.89525 1727.17 C 1.47693 1715.28 2.17541 1696.94 2.27441 1684.59 C 2.42223 1667.01 2.34229 1649.42 2.0346 1631.84 L 1.54959 1378.97 C 6.1505 1374.03 14.7957 1368.36 22.354 1368.52 C 36.0458 1368.81 74.3471 1362.12 78.6633 1381.09 C 79.8643 1386.37 81.0639 1399.42 81.7398 1405.11 C 84.0087 1404.91 100.96 1390.29 104.425 1387.94 C 121.59 1376.28 136.078 1369.34 156.345 1366.28 z"/>
<path transform="translate(0,0)" fill="rgba(254, 254, 254, 1)" d="M 394.36 1745 C 335.159 1731.1 293.111 1710.17 260.105 1657.04 C 205.847 1569.7 231.62 1443.31 319.631 1388.19 C 361.501 1361.97 420.141 1356.31 467.227 1368.03 C 513.939 1380.11 553.989 1410.15 578.655 1451.61 C 596.221 1481.21 607.896 1524 600.882 1558.04 C 597.694 1573.5 585.255 1584.61 569.244 1585.01 C 546.688 1585.58 523.968 1585.23 501.354 1585.18 L 369.651 1585.17 C 356.047 1585.17 324.198 1584.21 312.413 1586.89 C 319.633 1616.45 334.157 1637.4 360.159 1653.5 C 386.191 1669.6 424.672 1675.6 454.306 1667.85 C 467.308 1664.47 479.545 1658.64 490.363 1650.68 C 494.97 1647.25 514.912 1628.43 517.473 1628.07 C 536.748 1625.35 569.049 1656.23 576.46 1670.08 C 556.038 1711.72 496.996 1736.99 453.653 1745 L 394.36 1745 z M 484.264 1513.6 L 521.789 1513.9 C 516.289 1495.26 508.819 1483.37 495.139 1469.62 C 454.473 1428.26 379.947 1427.87 339.623 1468.5 C 326.373 1481.85 319.371 1496.02 314.385 1513.8 C 368.629 1515.06 429.944 1514.55 484.264 1513.6 z"/>
<path transform="translate(0,0)" fill="rgba(0, 0, 0, 1)" d="M 314.385 1513.8 C 319.371 1496.02 326.373 1481.85 339.623 1468.5 C 379.947 1427.87 454.473 1428.26 495.139 1469.62 C 508.819 1483.37 516.289 1495.26 521.789 1513.9 L 484.264 1513.6 C 429.944 1514.55 368.629 1515.06 314.385 1513.8 z M 509.722 1512 C 509.816 1508.07 510.776 1501.69 511.155 1499.19 C 511.966 1493.86 498.528 1475.09 494.929 1470.94 C 482.14 1459.97 455.713 1450.37 439.997 1443.43 C 442.204 1444.4 391.339 1442.58 389.6 1442.69 C 368.403 1455.61 345.669 1463.41 332.732 1486.57 C 329.08 1493.11 320.998 1501.97 324.529 1510.37 C 329.49 1512.33 354.481 1511.69 361.75 1511.68 L 461.75 1511.56 C 471.293 1511.56 501.449 1510.92 509.722 1512 z"/>
<path transform="translate(0,0)" fill="rgba(2, 19, 30, 1)" d="M 495.139 1469.62 C 508.819 1483.37 516.289 1495.26 521.789 1513.9 L 484.264 1513.6 C 486.892 1511.43 503.09 1513.29 509.722 1512 C 509.816 1508.07 510.776 1501.69 511.155 1499.19 C 511.966 1493.86 498.528 1475.09 494.929 1470.94 L 495.139 1469.62 z"/>
<path transform="translate(0,0)" fill="rgba(254, 254, 254, 1)" d="M 1523.5 1745 C 1455.16 1733.05 1401.62 1691.1 1391.76 1619.53 C 1388.8 1597.99 1389.62 1576.61 1389.6 1554.94 L 1389.7 1457.4 C 1389.72 1432.9 1388.63 1402.45 1390.69 1377.92 C 1391.77 1365.04 1415.52 1368.7 1425.09 1368.24 C 1470.04 1366.06 1470.44 1375.81 1467.62 1417.42 C 1466.85 1464.35 1464.49 1514.91 1467.61 1562.12 C 1468.13 1584.81 1466.79 1604.01 1477.15 1625.08 C 1510.38 1692.61 1622.13 1681.76 1642.98 1610 C 1650.17 1585.29 1647.66 1548.56 1647.61 1522.2 L 1647.53 1432.76 C 1647.52 1415.84 1647.03 1396.14 1647.84 1379.38 C 1653.31 1374.38 1655.38 1372.94 1661.67 1368.95 C 1673.93 1368.36 1715.46 1366.29 1723.83 1372.81 C 1726.61 1382.64 1726.71 1394.32 1726.41 1404.54 C 1725.02 1451.86 1727.41 1498.9 1728.19 1546.06 C 1728.76 1587.88 1728.55 1629.7 1727.56 1671.5 C 1727.23 1690.83 1732.35 1713.96 1723.27 1731.12 C 1721.02 1735.37 1718.22 1737.03 1713.49 1737.94 C 1699.28 1740.04 1671.68 1739.57 1658.33 1735.91 C 1647.85 1725.97 1645.94 1719.83 1647.76 1705.65 C 1640.55 1710.79 1632.01 1717.81 1624.95 1722.24 C 1607.7 1733.06 1582.76 1741.71 1562.62 1745 L 1523.5 1745 z"/>
<path transform="translate(0,0)" fill="rgba(254, 254, 254, 1)" d="M 758.286 1745 C 716.33 1736.21 666.755 1716.45 640.794 1680.4 C 629.171 1664.26 661.468 1637.77 673.321 1629.5 C 676.2 1627.49 682.376 1624.68 686.308 1625.78 C 696.488 1630.61 703.905 1640.86 713.076 1647.91 C 747.809 1674.63 797.409 1681.77 837.413 1662.88 C 853.946 1655.08 868.869 1637.41 857.793 1618.61 C 849.506 1604.54 831.599 1596.89 816.393 1593.39 C 762.842 1581.69 693.759 1581.47 661.571 1529.21 C 647.225 1505.38 642.994 1476.82 649.818 1449.86 C 655.067 1428.84 666.138 1412.66 683.404 1398.17 C 751.475 1341.05 873.825 1355.07 929.442 1423.01 C 943.122 1439.72 897.84 1469.76 885.924 1477.3 C 875.391 1472.65 863.601 1461.59 853.715 1454.83 C 820.571 1432.16 747.53 1422.57 724.85 1464.56 C 716.114 1480.74 733.248 1497.04 747.465 1502.55 C 766.603 1510.31 788.284 1511.84 808.45 1515.37 C 857.361 1523.94 912.895 1540.9 933.235 1591.18 C 958.191 1652.87 924.815 1708.58 865.873 1731.8 C 851.382 1737.51 836.565 1741.56 821.601 1745 L 758.286 1745 z"/>
<path transform="translate(0,0)" fill="rgba(254, 254, 254, 1)" d="M 1151.07 1745 C 1137.71 1741.87 1122.43 1738.4 1109.44 1733.73 C 1069.44 1719.35 1033.5 1692.33 1010.22 1656.67 C 983.729 1616.06 976.6 1557.2 987.95 1510.13 C 1000.21 1458.94 1032.65 1414.89 1077.89 1387.98 C 1093.17 1378.75 1110.9 1371.91 1128.17 1367.27 C 1144.89 1362.78 1162.63 1362.81 1179.81 1362.82 C 1195.87 1362.83 1211.37 1363.81 1227.02 1367.9 C 1256.47 1375.61 1283.79 1391.55 1306.84 1411.23 C 1313.83 1417.2 1331.26 1430.53 1327.45 1440.97 C 1321.59 1457 1299.14 1475.62 1284.82 1483.49 C 1282.35 1484.87 1279.81 1486.14 1277.21 1487.27 L 1275.87 1486.71 C 1263.63 1481.55 1254.97 1470.26 1244.43 1462.64 C 1213.54 1440.29 1176.4 1433.31 1139.9 1445.26 C 1039.72 1478.07 1034.09 1622.16 1132.92 1661.7 C 1158.98 1672.12 1194.57 1673.77 1220.57 1662.15 C 1228.6 1658.59 1236.28 1654.29 1243.51 1649.31 C 1253.5 1642.37 1265.71 1631.21 1276.64 1625.81 C 1278.15 1625.06 1285.26 1626.64 1287.14 1627.49 C 1308.48 1637.1 1319.11 1650.59 1328.16 1670.66 C 1307.43 1711.83 1243.9 1737.75 1200.49 1745 L 1151.07 1745 z"/>
<path transform="translate(0,0)" fill="rgba(254, 254, 254, 1)" d="M 1848.96 1442.16 C 1833.08 1440.9 1790.76 1446.12 1780.38 1434.37 C 1776.56 1430.05 1777.67 1392.78 1778.06 1384.91 C 1779.52 1355.02 1843.38 1384.82 1849.04 1360.86 C 1850.32 1339.97 1847.97 1316.93 1850.83 1295.37 C 1854.48 1269.56 1868.02 1246.19 1888.6 1230.19 C 1917.94 1207.78 1954.12 1205.25 1989.64 1206.18 C 2012.32 1206.78 2032.74 1200.6 2048 1221.17 L 2048 1236.66 C 2046.62 1244.13 2046.45 1258.57 2046.16 1266.6 C 2041.39 1274.77 2037.42 1278.17 2029.28 1282.28 C 1996.15 1282.04 1935.45 1266.8 1928.22 1315.23 C 1926.19 1328.8 1927.61 1356.49 1928.67 1370.43 C 1955 1372.96 1986.96 1363.51 2012.79 1372.5 C 2015.55 1373.46 2018.7 1377.22 2020.67 1379.5 C 2021.53 1387.85 2022.35 1396.21 2023.13 1404.57 C 2023.81 1412.28 2024.52 1429.4 2018.76 1434.72 C 2003.91 1448.42 1957.77 1438.52 1937.15 1441.42 C 1932.71 1442.05 1927.84 1442.8 1927.08 1447.22 C 1923.3 1470.52 1927.58 1495.46 1927.62 1518.89 C 1927.7 1585.19 1928.6 1651.64 1927.31 1717.9 C 1927.12 1727.95 1917.04 1739.12 1906.87 1738.78 C 1888.4 1738.15 1848.94 1746.46 1849.46 1717.67 C 1848.9 1691.04 1849.14 1664.27 1849.23 1637.61 C 1848.2 1572.73 1850.99 1506.92 1848.96 1442.16 z"/>
<path transform="translate(0,0)" fill="rgba(75, 142, 183, 1)" d="M 969.408 0 L 996.43 0 C 1001.46 4.3496 1006.8 6.18376 1013.07 7.9969 C 1030.95 12.5841 1040.44 21.3084 1051.87 34.8284 C 1080.91 69.1813 1075.83 130.666 1037.08 157.142 C 972.92 200.977 880.819 152.556 898.439 68.7257 C 903.64 43.4166 920.558 22.0846 944.017 11.255 C 951.451 7.86634 963.073 4.5232 969.408 0 z"/>
</g></svg></svg><svg x="564" y="468" width="64" height="77" xmlns="http://www.w3.org/2000/svg" preserveAspectRatio="none"><svg version="1.1" xmlns="http://www.w3.org/2000/svg" style="display: block;" width="64" height="77" viewBox="342.25 410.51 514.46 618.96" preserveAspectRatio="none"><g id="svg-group-64856817-0416-4093-9ebb-c568cdc66ad4">
<path transform="translate(0,0)" fill="rgb(231,100,95)" d="M 501.282 413.515 C 530.665 413.03 560.052 412.806 589.44 412.842 C 608.645 412.814 628.802 411.637 647.811 414.77 C 672.061 418.765 833.872 497.205 850.756 512.687 C 853.59 515.284 856.332 517.946 856.452 521.981 C 856.712 530.659 850.814 540.287 847.658 548.143 C 831.201 589.098 813.537 630.493 791.294 668.717 C 786.135 677.582 780.524 685.793 773.469 693.256 C 732.913 673.148 636.461 611.929 594.609 611.779 C 577.411 611.717 562.362 619.084 550.319 631.153 C 545.307 636.176 541.126 641.882 538.687 648.586 C 527.994 677.968 531.884 747.797 531.912 780.5 L 531.885 879.968 C 531.921 898.192 533.717 918.513 530.809 936.453 C 529.525 944.375 527.446 950.38 521.959 956.277 C 502.82 976.846 406.877 1027.5 379.644 1028.16 C 371.552 1028.35 366.803 1025.14 361.166 1019.63 C 354.783 1013.4 347.292 1004.15 345.806 995.058 C 343.499 980.933 344.898 965.536 344.924 951.253 L 344.956 875.037 L 344.913 597.41 C 344.786 551.68 342.251 531.233 369.731 491.756 C 405.725 440.047 435.732 413.696 501.282 413.515 z"/>
</g></svg></svg><svg x="392" y="308" width="241" height="245" xmlns="http://www.w3.org/2000/svg" preserveAspectRatio="none"><svg version="1.1" xmlns="http://www.w3.org/2000/svg" style="display: block;" width="241" height="245" viewBox="0.00 -2.00 1928.00 1960.00" preserveAspectRatio="none"><g id="svg-group-6b61a922-c333-4b20-b8a9-e7e4e60dd076">
<path transform="translate(0,0)" fill="rgba(73, 143, 185, 1)" d="M 0 490.493 C 6.37071 484.588 7.78916 473.564 12.2302 465.244 C 44.3294 405.105 124.095 397.506 172.423 442.322 C 181.937 451.145 193.404 471.009 197.491 483.758 C 201.806 508.744 200.249 543.063 200.231 569.136 L 200.176 755.821 C 200.186 784.772 200.009 814.024 200.058 842.987 C 200.066 847.443 201.196 854.794 203.198 858.678 C 209.711 871.314 219.186 871.721 231.902 871.863 C 255.352 872.124 278.777 871.826 302.173 871.821 L 441.642 871.845 L 564.416 871.893 C 623.888 871.937 661.523 874.857 720.342 860.095 C 774.525 846.724 824.31 819.519 864.829 781.142 C 936.174 713.331 972.702 637.643 975.937 537.574 C 977.846 478.534 954.623 408.882 923.536 359.412 C 893.945 315.066 838.995 261.666 787.797 241.576 C 775.883 236.902 761.66 230.726 749.815 226.634 C 712.638 214.168 673.663 207.905 634.453 208.096 L 235.806 208.17 C 203.275 208.168 170.97 207.111 138.658 211.126 C 125.573 212.752 114.342 211.156 101.635 210.286 C 52.1154 206.897 13.5391 172.358 6.3178 123.026 C 6.00517 120.89 2.44269 116.364 1.50802 113.699 L 2.46771 112.334 C 11.073 99.9557 7.37643 90.7766 11.8687 78.8844 C 22.8412 49.8379 51.9037 21.3124 83.5994 16.6365 C 94.9659 14.9597 106.866 13.3719 118.379 13.1217 C 162.63 17.3175 207.145 15.7498 251.687 15.7309 L 534.19 15.706 L 619.061 15.7225 C 664.206 15.736 703.933 15.7604 748.675 25.132 C 779.785 31.6484 811.006 42.6145 840.776 53.5724 C 853.627 58.3026 866.239 62.5064 878.434 68.9006 C 893.3 76.6956 906.822 86.5214 920.762 95.8027 C 932.446 103.582 944.402 110.949 955.924 118.972 C 1042.21 179.062 1110.81 272.016 1143.67 371.914 C 1151.72 396.397 1157.03 422.269 1161.5 447.616 C 1166.81 477.716 1168.25 508.045 1168.23 538.532 C 1168.15 658.338 1131.84 757.2 1063.32 854.706 C 1051.79 871.113 1038.88 887.291 1024.9 901.682 C 1017.15 909.654 1008.33 916.6 999.973 923.916 C 989.795 932.829 980.159 942.529 969.652 951.041 C 949.345 967.493 905.984 996.916 883.062 1008.34 C 869.607 1015.05 855.03 1019.62 840.98 1024.95 C 799.683 1040.6 774.129 1049.75 730.055 1057.39 C 715.855 1059.85 701.443 1062.4 687.063 1063.52 C 670.341 1064.82 653.291 1064.24 636.522 1064.24 L 556.073 1064.2 L 340.618 1064.23 L 277.322 1064.1 C 263.348 1064.05 245.394 1063.03 231.974 1065.66 C 212.309 1069.51 200.601 1081.5 200.344 1101.44 C 199.944 1132.43 200.062 1162.98 200.082 1193.78 L 200.11 1369.93 C 200.108 1396.36 203.305 1438.41 196.17 1462.71 C 170.737 1549.31 37.059 1546.87 8.08517 1465.37 C 6.01129 1459.53 4.18708 1453.22 0 1448.4 L 0 490.493 z"/>
<path transform="translate(0,0)" fill="rgba(228, 101, 96, 1)" d="M 1298.21 872.19 C 1338.98 870.971 1384.62 871.886 1425.87 871.932 L 1657.4 872.103 L 1776.6 872.049 C 1803.04 872.036 1833.31 870.75 1859.11 875.147 C 1879.19 878.57 1899.24 893.906 1909.57 911.143 C 1915.67 921.333 1920.11 932.525 1927.12 942.817 L 1928 944.088 L 1928 991.713 C 1909.85 1017.91 1900.72 1054.96 1863.23 1062.83 C 1824.05 1071.05 1777.99 1068.15 1737.89 1068.14 L 1500.9 1068.06 L 1428.51 1068.04 C 1414.84 1068.05 1396.19 1067.55 1382.98 1068.87 L 1381.41 1069.04 C 1363.72 1083.73 1350.32 1105.85 1334.71 1122.72 C 1299.85 1160.4 1262.72 1195.1 1221.64 1225.96 C 1202.45 1240.37 1184.22 1251.83 1168.62 1270.44 C 1167.22 1296.34 1168.49 1322.89 1168.07 1348.86 C 1167.33 1394.11 1169.3 1440.13 1167.94 1485.29 C 1164.9 1489.71 1150.14 1506.03 1146.3 1504.52 C 1128.64 1497.57 1098.86 1464.66 1086.49 1452.29 L 1022.45 1388.19 L 957.873 1323.59 C 936.187 1301.89 913.329 1280.51 895.854 1255.2 C 889.357 1245.78 890.614 1228.61 900.767 1222.32 C 922.427 1206.52 955.88 1200.08 978.112 1187.51 C 1009.06 1170.02 1045.86 1148.14 1074.06 1127.34 C 1150.73 1070.82 1219.99 1000.78 1269.9 919.401 C 1278.86 904.802 1285.49 883.409 1298.21 872.19 z"/>
<path transform="translate(0,0)" fill="rgba(228, 101, 96, 1)" d="M 1163.79 0 L 1249.34 0 C 1254.59 6.44023 1258.21 6.29912 1266.27 6.93399 C 1355.43 14.0632 1446.6 37.1413 1524.42 82.0355 C 1564.39 105.095 1556.13 120.271 1556.09 160.732 L 1556.02 310.244 C 1556.01 342.315 1554.38 376.475 1559.57 408.664 C 1562.89 435.998 1603.3 467.647 1630.41 463.799 C 1650.36 460.969 1686.11 438.162 1705.72 429.107 C 1724.57 420.408 1744.15 409.332 1762.89 400.242 C 1772.35 395.655 1784.12 385.507 1794.18 383.344 C 1816 390.137 1847.09 460.652 1855.61 482.968 C 1861.53 498.48 1887.1 547.108 1871.45 558.541 C 1853.37 571.747 1828.57 585.079 1809.59 596.25 C 1761.93 624.294 1712.58 653.895 1655.51 653.27 C 1607.33 657.247 1557.03 655.901 1508.82 655.685 C 1475.68 655.537 1450.24 642.266 1428.15 618.641 C 1412.3 601.7 1386.82 578.854 1382.19 554.107 C 1373.82 509.355 1379.08 462.466 1371.22 417.521 C 1350.29 287.047 1291.08 170.901 1200.75 74.8313 C 1191.95 65.4661 1146.56 23.9449 1147.06 14.5235 C 1149.78 7.55494 1157.29 4.1142 1163.79 0 z"/>
<path transform="translate(0,0)" fill="rgba(73, 143, 185, 1)" d="M 1026.6 1956 C 1002.91 1940.25 980.92 1925.97 963.194 1903.31 C 950.208 1886.71 932.835 1870.87 917.78 1855.81 L 777.06 1715.01 L 596.289 1534.23 L 538.022 1475.94 C 527.054 1464.97 514.023 1452.79 504.099 1441.31 C 491.35 1426.55 477.807 1413.02 474.076 1393.51 C 470.271 1373.61 470.639 1333.31 482.706 1316.51 C 498.171 1294.97 521.836 1277.25 548.519 1273.11 C 572.621 1269.36 602.108 1271.81 622.726 1285.93 C 631.593 1292.01 640.055 1302.19 648.282 1309.32 C 681.563 1338.56 713.427 1369.38 743.768 1401.67 C 752.343 1410.8 760.111 1421.58 768.829 1430.35 C 858.979 1520.95 949.628 1611.07 1039.87 1701.58 C 1049.2 1710.93 1056.81 1722.59 1066.14 1732.02 C 1089.19 1756.05 1115.97 1774.33 1137.73 1799.83 C 1148 1811.86 1156 1829.15 1158.82 1844.87 C 1163.09 1868.61 1151.7 1898.8 1138.53 1918.12 C 1126.97 1935.1 1104 1944.13 1088.54 1956 L 1026.6 1956 z"/>
</g></svg></svg></svg>